<svg width="211" height="194" viewBox="0 0 211 194" fill="none" xmlns="http://www.w3.org/2000/svg">
<path d="M210.07 60.66C210.07 69.75 208.07 78.37 204.49 86.1C201.91 91.68 198.51 96.8 194.44 101.3L191.39 104.44L191.26 104.57L105.05 193.47L18.8403 104.57L18.7103 104.44L15.6602 101.3C11.5902 96.8 8.19026 91.68 5.61026 86.1C2.03026 78.36 0.0302734 69.75 0.0302734 60.66C0.0302734 27.16 27.1903 0 60.6903 0C78.2003 0 93.9803 7.42 105.05 19.29C116.12 7.42 131.9 0 149.41 0C182.91 0 210.07 27.16 210.07 60.66Z" fill="white"/>
</svg>
